<svg width="26" height="26" viewBox="0 0 26 26" fill="none" xmlns="http://www.w3.org/2000/svg">
<path d="M18.993 16.365C18.7047 16.3648 18.4282 16.2502 18.2244 16.0462C18.0207 15.8422 17.9063 15.5656 17.9064 15.2773C17.9066 14.989 18.0212 14.7125 18.2252 14.5088C18.4292 14.305 18.7058 14.1906 18.9941 14.1907C19.2824 14.1907 19.5589 14.3053 19.7628 14.5091C19.9667 14.713 20.0812 14.9895 20.0812 15.2779C20.0812 15.5662 19.9667 15.8427 19.7628 16.0466C19.5589 16.2504 19.2824 16.365 18.9941 16.365H18.993ZM7.02867 16.365C6.8859 16.3649 6.74455 16.3367 6.61268 16.282C6.48081 16.2273 6.36101 16.1472 6.26011 16.0462C6.05634 15.8422 5.94194 15.5656 5.94208 15.2773C5.94223 14.989 6.0569 14.7125 6.26088 14.5088C6.46486 14.305 6.74143 14.1906 7.02975 14.1907C7.31807 14.1907 7.59459 14.3053 7.79846 14.5091C8.00234 14.713 8.11687 14.9895 8.11687 15.2779C8.11687 15.5662 8.00234 15.8427 7.79846 16.0466C7.59459 16.2504 7.31807 16.365 7.02975 16.365H7.02867ZM19.3787 9.84549L21.5518 6.09823C21.6103 5.99466 21.6252 5.87209 21.5933 5.75751C21.5614 5.64292 21.4853 5.5457 21.3818 5.48723C21.2782 5.42877 21.1556 5.41384 21.041 5.44573C20.9264 5.47763 20.8292 5.55374 20.7708 5.65732L18.5748 9.44898C16.8309 8.65185 14.9348 8.24233 13.0173 8.24865C11.0132 8.24865 9.12275 8.67982 7.44792 9.43815L5.252 5.64648C5.22305 5.59527 5.18429 5.55026 5.13795 5.51402C5.0916 5.47778 5.03857 5.45103 4.98188 5.43528C4.9252 5.41954 4.86597 5.41512 4.80757 5.42226C4.74917 5.42941 4.69276 5.44799 4.64154 5.47694C4.59033 5.50589 4.54531 5.54465 4.50908 5.591C4.47284 5.63734 4.44608 5.69037 4.43034 5.74706C4.4146 5.80375 4.41017 5.86298 4.41732 5.92137C4.42447 5.97977 4.44305 6.03619 4.472 6.0874L6.63325 9.83357C2.92067 11.8594 0.37375 15.6186 0 20.0667H26C25.6382 15.6294 23.1021 11.8713 19.3787 9.84549Z" fill="#ED5C15"/>
</svg>
