<svg width="24" height="24" viewBox="0 0 24 24" fill="none" xmlns="http://www.w3.org/2000/svg">
<path d="M21.815 4.64123C21.7252 4.5386 21.6151 4.45562 21.4917 4.39749C21.3683 4.33936 21.2342 4.30732 21.0978 4.30338C18.9794 4.248 16.2987 1.98277 14.5264 1.09385C13.4317 0.546461 12.7089 0.185537 12.1661 0.0904605C12.0559 0.0744013 11.9439 0.0747124 11.8338 0.0913836C11.291 0.186461 10.5683 0.547384 9.47443 1.09477C7.70212 1.98277 5.02151 4.248 2.90304 4.30338C2.76659 4.30752 2.63243 4.33965 2.5089 4.39776C2.38536 4.45588 2.27508 4.53874 2.18489 4.64123C1.99794 4.85274 1.90149 5.12918 1.91628 5.41108C2.37135 14.6631 5.68981 20.3889 11.5126 23.7166C11.664 23.8025 11.832 23.8468 11.999 23.8468C12.1661 23.8468 12.3341 23.8025 12.4864 23.7166C18.3092 20.3889 21.6267 14.6631 22.0827 5.41108C22.0984 5.12922 22.0022 4.85257 21.815 4.64123ZM17.1849 8.28L12.2714 15.5308C12.095 15.7911 11.8181 15.9637 11.544 15.9637C11.2689 15.9637 10.9634 15.8132 10.7704 15.6203L7.30704 12.156C7.19397 12.0425 7.13048 11.8888 7.13048 11.7286C7.13048 11.5684 7.19397 11.4147 7.30704 11.3012L8.16274 10.4437C8.27647 10.3311 8.43006 10.2679 8.59012 10.2679C8.75018 10.2679 8.90377 10.3311 9.01751 10.4437L11.2698 12.696L15.1827 6.92031C15.2733 6.78814 15.4124 6.69716 15.5698 6.66724C15.7272 6.63732 15.89 6.67089 16.0227 6.76061L17.0243 7.44C17.1566 7.53039 17.2478 7.66948 17.2779 7.82687C17.3079 7.98426 17.2745 8.14717 17.1849 8.28Z" fill="#666666"/>
</svg>
