<svg width="26" height="26" viewBox="0 0 26 26" fill="none" xmlns="http://www.w3.org/2000/svg">
<path d="M7.41005 11.6999C7.93005 9.0999 10.27 7.1499 13 7.1499C14.95 7.1499 16.51 8.0599 17.55 9.4899L19.76 6.8899C18.2 5.0699 15.73 3.8999 13 3.8999C8.45005 3.8999 4.68005 7.2799 4.03005 11.6999H1.30005L5.85005 16.8999L10.4 11.6999H7.41005ZM20.15 9.0999L15.6 14.2999H18.59C17.94 16.8999 15.73 18.8499 13 18.8499C11.05 18.8499 9.49005 17.9399 8.45005 16.5099L6.24005 18.9799C7.80005 20.9299 10.27 22.0999 13 22.0999C17.55 22.0999 21.32 18.7199 21.97 14.2999H24.7L20.15 9.0999Z" fill="#ED5C15"/>
</svg>
