<svg width="30" height="21" viewBox="0 0 30 21" fill="none" xmlns="http://www.w3.org/2000/svg">
<path d="M20.5943 10.1085L15 16.3105L9.4057 10.1085L11.5943 7.97596L13.5 10.0887V1.55901C13.5 0.69799 14.1716 0 15 0C15.8284 0 16.5 0.69799 16.5 1.55901V10.0887L18.4057 7.97596L20.5943 10.1085Z" fill="white"/>
<path fill-rule="evenodd" clip-rule="evenodd" d="M9.52258 8.36343C9.91543 7.45368 10.5114 6.66027 11.25 6.04498V2.40778C9.2699 3.35247 7.67727 5.02183 6.7856 7.08673C6.66017 7.37719 6.57637 7.57102 6.51309 7.70934C6.4975 7.74342 6.48489 7.77031 6.4748 7.79131L6.44516 7.79241C6.34977 7.79537 6.21897 7.79554 6 7.79554C2.68629 7.79554 0 10.5875 0 14.0316C0 17.4756 2.68629 20.2676 6 20.2676H24C27.3137 20.2676 30 17.4756 30 14.0316C30 10.5875 27.3137 7.79554 24 7.79554C23.781 7.79554 23.6502 7.79537 23.5548 7.79241L23.5252 7.79131C23.5151 7.7703 23.5025 7.74342 23.4869 7.70934C23.4236 7.57102 23.3398 7.37719 23.2144 7.08673C22.3227 5.02183 20.7301 3.35247 18.75 2.40778V6.04498C19.4886 6.66027 20.0846 7.45367 20.4774 8.36343L20.4847 8.38034C20.6009 8.64943 20.6983 8.87504 20.7776 9.04821C20.8467 9.19937 20.9494 9.41899 21.0797 9.60843C21.2688 9.8834 21.5168 10.1876 21.879 10.4312C22.2412 10.6749 22.6098 10.7856 22.9285 10.8522C23.2299 10.9153 23.5923 10.9144 23.9037 10.9137L24 10.9135C25.6569 10.9135 27 12.3095 27 14.0316C27 15.7536 25.6569 17.1496 24 17.1496H6C4.34315 17.1496 3 15.7536 3 14.0316C3 12.3095 4.34315 10.9135 6 10.9135L6.09628 10.9137C6.40764 10.9144 6.77014 10.9153 7.07146 10.8522C7.39024 10.7856 7.7588 10.6749 8.121 10.4312C8.48319 10.1876 8.73124 9.8834 8.92031 9.60843C9.05057 9.419 9.15329 9.19937 9.22244 9.04821C9.30166 8.87504 9.39908 8.64943 9.51528 8.38034L9.52258 8.36343ZM6.44633 7.84805C6.44615 7.84839 6.44633 7.84805 6.44633 7.84805ZM23.5537 7.84805C23.5539 7.84844 23.5537 7.84806 23.5537 7.84805Z" fill="white"/>
</svg>
