<svg width="26" height="26" viewBox="0 0 26 26" fill="none" xmlns="http://www.w3.org/2000/svg">
<g clip-path="url(#clip0_207_1932)">
<path d="M16.8492 11.3802C18.2858 11.3802 19.6361 11.9382 20.6507 12.9528L21.6455 13.9477C23.6773 13.0468 25.2637 11.241 25.7903 9.03965C26.081 7.82496 26.0614 6.64887 25.8012 5.56621C25.6685 5.01371 24.9669 4.82937 24.5652 5.23085L21.0663 8.72968H17.2273V4.93601L20.7261 1.43719C21.1279 1.0354 20.9432 0.333709 20.3908 0.20117C19.3081 -0.059084 18.132 -0.0786348 16.9173 0.212088C14.1091 0.883924 11.9209 3.27013 11.4736 6.12303C11.4004 6.54578 11.3852 6.95711 11.3902 7.36336L15.5939 11.5711C16.0062 11.4309 16.4277 11.3802 16.8492 11.3802ZM19.5 14.1477C18.3239 12.9716 16.5765 12.7477 15.1638 13.4419L9.7043 8.02351V4.87457L3.25 7.61454e-05L0 3.20437L4.875 9.65867L8.02547 9.65908L13.4438 15.0724C12.7496 16.4851 12.9741 18.2325 14.1502 19.4086L20.0916 25.3551C20.834 26.0914 22.032 26.0914 22.7683 25.3549L25.447 22.6762C26.1833 21.9399 26.1833 20.7425 25.4469 19.9996L19.5 14.1477ZM11.573 15.5899L8.5668 12.5887L1.00547 20.1501C-0.333633 21.4892 -0.333633 23.658 1.00547 24.9971C1.67375 25.6649 2.54973 26.0001 3.42773 26.0001C4.30574 26.0001 5.18172 25.6653 5.85102 24.9956L11.8991 18.9476C11.4512 17.8903 11.3039 16.7274 11.573 15.5899ZM3.25 23.9688C2.57715 23.9688 2.03125 23.4229 2.03125 22.7501C2.03125 22.0767 2.57715 21.5313 3.25 21.5313C3.92285 21.5313 4.46875 22.0747 4.46875 22.7501C4.46875 23.4255 3.92285 23.9688 3.25 23.9688Z" fill="#ED5C15"/>
</g>
<defs>
<clipPath id="clip0_207_1932">
<rect width="26" height="26" fill="white"/>
</clipPath>
</defs>
</svg>
