<svg width="52" height="52" viewBox="0 0 52 52" fill="none" xmlns="http://www.w3.org/2000/svg">
<g filter="url(#filter0_d_311_764)">
<circle cx="26.1622" cy="22" r="21.8378" fill="white"/>
</g>
<path d="M41.7759 18.8814H40.4932V18.8153H26.1622V25.1847H35.1613C33.8484 28.8925 30.3206 31.5541 26.1622 31.5541C20.8859 31.5541 16.6081 27.2762 16.6081 22C16.6081 16.7238 20.8859 12.446 26.1622 12.446C28.5977 12.446 30.8134 13.3647 32.5005 14.8655L37.0044 10.3616C34.1605 7.71114 30.3564 6.0766 26.1622 6.0766C17.3685 6.0766 10.2387 13.2063 10.2387 22C10.2387 30.7937 17.3685 37.9234 26.1622 37.9234C34.9559 37.9234 42.0856 30.7937 42.0856 22C42.0856 20.9324 41.9757 19.8902 41.7759 18.8814Z" fill="#FFC107"/>
<path d="M12.0747 14.5885L17.3064 18.4252C18.722 14.9205 22.1503 12.446 26.1622 12.446C28.5977 12.446 30.8134 13.3647 32.5005 14.8655L37.0044 10.3616C34.1605 7.71114 30.3564 6.0766 26.1622 6.0766C20.046 6.0766 14.7419 9.52959 12.0747 14.5885Z" fill="#FF3D00"/>
<path d="M26.1622 37.9234C30.2752 37.9234 34.0124 36.3494 36.838 33.7897L31.9097 29.6194C30.2573 30.876 28.2382 31.5557 26.1622 31.5541C22.0205 31.5541 18.5038 28.9132 17.179 25.2277L11.9863 29.2284C14.6217 34.3853 19.9735 37.9234 26.1622 37.9234Z" fill="#4CAF50"/>
<path d="M41.7759 18.8814H40.4933V18.8153H26.1622V25.1847H35.1613C34.5333 26.9494 33.402 28.4913 31.9073 29.6202L31.9097 29.6186L36.838 33.7889C36.4893 34.1058 42.0856 29.9617 42.0856 22C42.0856 20.9324 41.9757 19.8902 41.7759 18.8814Z" fill="#1976D2"/>
<defs>
<filter id="filter0_d_311_764" x="0.324326" y="0.16217" width="51.6757" height="51.6757" filterUnits="userSpaceOnUse" color-interpolation-filters="sRGB">
<feFlood flood-opacity="0" result="BackgroundImageFix"/>
<feColorMatrix in="SourceAlpha" type="matrix" values="0 0 0 0 0 0 0 0 0 0 0 0 0 0 0 0 0 0 127 0" result="hardAlpha"/>
<feOffset dy="4"/>
<feGaussianBlur stdDeviation="2"/>
<feComposite in2="hardAlpha" operator="out"/>
<feColorMatrix type="matrix" values="0 0 0 0 0 0 0 0 0 0 0 0 0 0 0 0 0 0 0.25 0"/>
<feBlend mode="normal" in2="BackgroundImageFix" result="effect1_dropShadow_311_764"/>
<feBlend mode="normal" in="SourceGraphic" in2="effect1_dropShadow_311_764" result="shape"/>
</filter>
</defs>
</svg>
