<svg width="26" height="26" viewBox="0 0 26 26" fill="none" xmlns="http://www.w3.org/2000/svg">
<path fill-rule="evenodd" clip-rule="evenodd" d="M18.9584 21.6665C19.6767 21.6665 20.3656 21.3812 20.8735 20.8733C21.3814 20.3653 21.6667 19.6765 21.6667 18.9582C21.6667 18.2399 21.3814 17.551 20.8735 17.0431C20.3656 16.5352 19.6767 16.2498 18.9584 16.2498C18.2401 16.2498 17.5512 16.5352 17.0433 17.0431C16.5354 17.551 16.2501 18.2399 16.2501 18.9582C16.2501 19.6765 16.5354 20.3653 17.0433 20.8733C17.5512 21.3812 18.2401 21.6665 18.9584 21.6665ZM18.9584 22.7498C19.964 22.7498 20.9285 22.3504 21.6395 21.6393C22.3506 20.9282 22.7501 19.9638 22.7501 18.9582C22.7501 17.9526 22.3506 16.9881 21.6395 16.2771C20.9285 15.566 19.964 15.1665 18.9584 15.1665C17.9528 15.1665 16.9884 15.566 16.2773 16.2771C15.5662 16.9881 15.1667 17.9526 15.1667 18.9582C15.1667 19.9638 15.5662 20.9282 16.2773 21.6393C16.9884 22.3504 17.9528 22.7498 18.9584 22.7498Z" fill="#ED5C15"/>
<path fill-rule="evenodd" clip-rule="evenodd" d="M18.9584 17.0625C19.1021 17.0625 19.2399 17.1196 19.3414 17.2212C19.443 17.3227 19.5001 17.4605 19.5001 17.6042V18.7341L19.883 19.117C19.9817 19.2192 20.0363 19.356 20.0351 19.4981C20.0338 19.6401 19.9769 19.7759 19.8764 19.8764C19.776 19.9768 19.6402 20.0338 19.4981 20.035C19.3561 20.0362 19.2193 19.9816 19.1171 19.883L18.4167 19.1826V17.6042C18.4167 17.4605 18.4738 17.3227 18.5754 17.2212C18.677 17.1196 18.8148 17.0625 18.9584 17.0625ZM7.58341 12.4583H6.50008V13.5417H7.58341V12.4583ZM6.50008 11.375C6.21276 11.375 5.93721 11.4891 5.73405 11.6923C5.53088 11.8955 5.41675 12.171 5.41675 12.4583V13.5417C5.41675 13.829 5.53088 14.1045 5.73405 14.3077C5.93721 14.5109 6.21276 14.625 6.50008 14.625H7.58341C7.87073 14.625 8.14628 14.5109 8.34945 14.3077C8.55261 14.1045 8.66675 13.829 8.66675 13.5417V12.4583C8.66675 12.171 8.55261 11.8955 8.34945 11.6923C8.14628 11.4891 7.87073 11.375 7.58341 11.375H6.50008ZM11.9167 12.4583H10.8334V13.5417H11.9167V12.4583ZM10.8334 11.375C10.5461 11.375 10.2705 11.4891 10.0674 11.6923C9.86422 11.8955 9.75008 12.171 9.75008 12.4583V13.5417C9.75008 13.829 9.86422 14.1045 10.0674 14.3077C10.2705 14.5109 10.5461 14.625 10.8334 14.625H11.9167C12.2041 14.625 12.4796 14.5109 12.6828 14.3077C12.8859 14.1045 13.0001 13.829 13.0001 13.5417V12.4583C13.0001 12.171 12.8859 11.8955 12.6828 11.6923C12.4796 11.4891 12.2041 11.375 11.9167 11.375H10.8334ZM16.2501 12.4583H15.1667V13.5417H16.2501V12.4583ZM15.1667 11.375C14.8794 11.375 14.6039 11.4891 14.4007 11.6923C14.1976 11.8955 14.0834 12.171 14.0834 12.4583V13.5417C14.0834 13.829 14.1976 14.1045 14.4007 14.3077C14.6039 14.5109 14.8794 14.625 15.1667 14.625H16.2501C16.5374 14.625 16.8129 14.5109 17.0161 14.3077C17.2193 14.1045 17.3334 13.829 17.3334 13.5417V12.4583C17.3334 12.171 17.2193 11.8955 17.0161 11.6923C16.8129 11.4891 16.5374 11.375 16.2501 11.375H15.1667ZM7.58341 16.7917H6.50008V17.875H7.58341V16.7917ZM6.50008 15.7083C6.21276 15.7083 5.93721 15.8225 5.73405 16.0256C5.53088 16.2288 5.41675 16.5043 5.41675 16.7917V17.875C5.41675 18.1623 5.53088 18.4379 5.73405 18.641C5.93721 18.8442 6.21276 18.9583 6.50008 18.9583H7.58341C7.87073 18.9583 8.14628 18.8442 8.34945 18.641C8.55261 18.4379 8.66675 18.1623 8.66675 17.875V16.7917C8.66675 16.5043 8.55261 16.2288 8.34945 16.0256C8.14628 15.8225 7.87073 15.7083 7.58341 15.7083H6.50008ZM11.9167 16.7917H10.8334V17.875H11.9167V16.7917ZM10.8334 15.7083C10.5461 15.7083 10.2705 15.8225 10.0674 16.0256C9.86422 16.2288 9.75008 16.5043 9.75008 16.7917V17.875C9.75008 18.1623 9.86422 18.4379 10.0674 18.641C10.2705 18.8442 10.5461 18.9583 10.8334 18.9583H11.9167C12.2041 18.9583 12.4796 18.8442 12.6828 18.641C12.8859 18.4379 13.0001 18.1623 13.0001 17.875V16.7917C13.0001 16.5043 12.8859 16.2288 12.6828 16.0256C12.4796 15.8225 12.2041 15.7083 11.9167 15.7083H10.8334Z" fill="#ED5C15"/>
<path fill-rule="evenodd" clip-rule="evenodd" d="M4.33333 6.5C4.33333 6.35634 4.3904 6.21857 4.49198 6.11698C4.59357 6.0154 4.73134 5.95833 4.875 5.95833H7.58333V4.875H4.875C4.44402 4.875 4.0307 5.0462 3.72595 5.35095C3.4212 5.6557 3.25 6.06902 3.25 6.5V19.5C3.25 19.931 3.4212 20.3443 3.72595 20.649C4.0307 20.9538 4.44402 21.125 4.875 21.125H15.8465C15.6155 20.7941 15.439 20.4284 15.3238 20.0417H4.875C4.73134 20.0417 4.59357 19.9846 4.49198 19.883C4.3904 19.7814 4.33333 19.6437 4.33333 19.5V6.5ZM18.4167 15.2046C18.7759 15.1532 19.1407 15.1532 19.5 15.2046V6.5C19.5 6.06902 19.3288 5.6557 19.024 5.35095C18.7193 5.0462 18.306 4.875 17.875 4.875H16.25V5.95833H17.875C18.0187 5.95833 18.1564 6.0154 18.258 6.11698C18.3596 6.21857 18.4167 6.35634 18.4167 6.5V15.2046ZM8.66667 5.95833H14.3883V4.875H8.66667V5.95833Z" fill="#ED5C15"/>
<path fill-rule="evenodd" clip-rule="evenodd" d="M15.1667 4.875H8.66675V6.5C8.66675 6.64366 8.60968 6.78143 8.5081 6.88302C8.40652 6.9846 8.26874 7.04167 8.12508 7.04167C7.98142 7.04167 7.84365 6.9846 7.74207 6.88302C7.64048 6.78143 7.58341 6.64366 7.58341 6.5V4.875H4.87508C4.58776 4.875 4.31221 4.98914 4.10905 5.1923C3.90588 5.39547 3.79175 5.67102 3.79175 5.95833V8.66667C3.79175 8.95398 3.90588 9.22953 4.10905 9.4327C4.31221 9.63586 4.58776 9.75 4.87508 9.75H17.8751C18.1624 9.75 18.438 9.63586 18.6411 9.4327C18.8443 9.22953 18.9584 8.95398 18.9584 8.66667V5.95833C18.9584 5.67102 18.8443 5.39547 18.6411 5.1923C18.438 4.98914 18.1624 4.875 17.8751 4.875H16.2501V6.5C16.2501 6.64366 16.193 6.78143 16.0914 6.88302C15.9898 6.9846 15.8521 7.04167 15.7084 7.04167C15.5648 7.04167 15.427 6.9846 15.3254 6.88302C15.2238 6.78143 15.1667 6.64366 15.1667 6.5V4.875Z" fill="#ED5C15"/>
<path fill-rule="evenodd" clip-rule="evenodd" d="M19.4999 9.74984H4.33325V8.6665H19.4999V9.74984Z" fill="#ED5C15"/>
<path d="M6.5 3.79167C6.5 3.64801 6.55707 3.51023 6.65865 3.40865C6.76023 3.30707 6.89801 3.25 7.04167 3.25C7.18533 3.25 7.3231 3.30707 7.42468 3.40865C7.52627 3.51023 7.58333 3.64801 7.58333 3.79167V5.95833C7.58333 6.10199 7.52627 6.23977 7.42468 6.34135C7.3231 6.44293 7.18533 6.5 7.04167 6.5C6.89801 6.5 6.76023 6.44293 6.65865 6.34135C6.55707 6.23977 6.5 6.10199 6.5 5.95833V3.79167ZM14.0833 3.79167C14.0833 3.64801 14.1404 3.51023 14.242 3.40865C14.3436 3.30707 14.4813 3.25 14.625 3.25C14.7687 3.25 14.9064 3.30707 15.008 3.40865C15.1096 3.51023 15.1667 3.64801 15.1667 3.79167V5.95833C15.1667 6.10199 15.1096 6.23977 15.008 6.34135C14.9064 6.44293 14.7687 6.5 14.625 6.5C14.4813 6.5 14.3436 6.44293 14.242 6.34135C14.1404 6.23977 14.0833 6.10199 14.0833 5.95833V3.79167Z" fill="#ED5C15"/>
</svg>
