<svg width="26" height="26" viewBox="0 0 26 26" fill="none" xmlns="http://www.w3.org/2000/svg">
<path d="M7.58325 5.41683H18.4166V7.5835H20.5833V3.25016C20.5833 2.0585 19.6083 1.09433 18.4166 1.09433L7.58325 1.0835C6.39159 1.0835 5.41659 2.0585 5.41659 3.25016V7.5835H7.58325V5.41683ZM16.6941 17.9727L21.6666 13.0002L16.6941 8.02766L15.1666 9.566L18.6008 13.0002L15.1666 16.4343L16.6941 17.9727ZM10.8333 16.4343L7.39909 13.0002L10.8333 9.566L9.30575 8.02766L4.33325 13.0002L9.30575 17.9727L10.8333 16.4343ZM18.4166 20.5835H7.58325V18.4168H5.41659V22.7502C5.41659 23.9418 6.39159 24.9168 7.58325 24.9168H18.4166C19.6083 24.9168 20.5833 23.9418 20.5833 22.7502V18.4168H18.4166V20.5835Z" fill="#ED5C15"/>
</svg>
