<svg width="26" height="26" viewBox="0 0 26 26" fill="none" xmlns="http://www.w3.org/2000/svg">
<path d="M11.1583 8.34167C11.058 8.44082 10.9783 8.5589 10.9239 8.68907C10.8695 8.81925 10.8415 8.95892 10.8415 9.1C10.8415 9.24108 10.8695 9.38075 10.9239 9.51092C10.9783 9.6411 11.058 9.75918 11.1583 9.85833L13.2167 11.9167H3.25001C2.65417 11.9167 2.16667 12.4042 2.16667 13C2.16667 13.5958 2.65417 14.0833 3.25001 14.0833H13.2167L11.1583 16.1417C11.058 16.2408 10.9783 16.3589 10.9239 16.4891C10.8695 16.6193 10.8415 16.7589 10.8415 16.9C10.8415 17.0411 10.8695 17.1808 10.9239 17.3109C10.9783 17.4411 11.058 17.5592 11.1583 17.6583C11.5808 18.0808 12.2525 18.0808 12.675 17.6583L16.5642 13.7692C16.6646 13.6689 16.7443 13.5499 16.7986 13.4188C16.853 13.2878 16.881 13.1473 16.881 13.0054C16.881 12.8635 16.853 12.723 16.7986 12.592C16.7443 12.4609 16.6646 12.3419 16.5642 12.2417L12.675 8.34167C12.5759 8.24131 12.4578 8.16163 12.3276 8.10724C12.1974 8.05286 12.0577 8.02486 11.9167 8.02486C11.7756 8.02486 11.6359 8.05286 11.5057 8.10724C11.3756 8.16163 11.2575 8.24131 11.1583 8.34167ZM21.6667 20.5833H14.0833C13.4875 20.5833 13 21.0708 13 21.6667C13 22.2625 13.4875 22.75 14.0833 22.75H21.6667C22.8583 22.75 23.8333 21.775 23.8333 20.5833V5.41667C23.8333 4.225 22.8583 3.25 21.6667 3.25H14.0833C13.4875 3.25 13 3.7375 13 4.33333C13 4.92917 13.4875 5.41667 14.0833 5.41667H21.6667V20.5833Z" fill="white"/>
</svg>
