<svg width="24" height="25" viewBox="0 0 24 25" fill="none" xmlns="http://www.w3.org/2000/svg">
<path d="M14 18.8934C12.225 18.893 10.5012 18.2988 9.103 17.2054L4.707 21.6014L3.293 20.1874L7.689 15.7914C6.595 14.393 6.00043 12.6688 6 10.8934C6 6.48237 9.589 2.89337 14 2.89337C18.411 2.89337 22 6.48237 22 10.8934C22 15.3044 18.411 18.8934 14 18.8934ZM14 4.89337C10.691 4.89337 8 7.58437 8 10.8934C8 14.2024 10.691 16.8934 14 16.8934C17.309 16.8934 20 14.2024 20 10.8934C20 7.58437 17.309 4.89337 14 4.89337Z" fill="#ED5C15"/>
<path d="M12.588 9.4794C12.209 9.8594 12 10.3614 12 10.8934H9.99999C9.9991 10.3678 10.1024 9.84729 10.3039 9.36188C10.5054 8.87647 10.8011 8.43582 11.174 8.0654C12.688 6.5534 15.313 6.5534 16.826 8.0654L15.414 9.4814C14.654 8.7234 13.344 8.7254 12.588 9.4794Z" fill="#ED5C15"/>
</svg>
